<svg xmlns="http://www.w3.org/2000/svg" xmlns:xlink="http://www.w3.org/1999/xlink" width="750" zoomAndPan="magnify" viewBox="0 0 562.5 562.499982" height="750" preserveAspectRatio="xMidYMid meet" version="1.0"><defs><clipPath id="532cbdf2d9"><path d="M 56.199219 56.199219 L 505.800781 56.199219 L 505.800781 505.800781 L 56.199219 505.800781 Z M 56.199219 56.199219 " clip-rule="nonzero"/></clipPath></defs><g clip-path="url(#532cbdf2d9)"><path fill="#ff0000" d="M 281.238281 505.816406 C 405.449219 505.816406 506.140625 405.125 506.140625 280.914062 C 506.140625 156.707031 405.449219 56.015625 281.238281 56.015625 C 157.03125 56.015625 56.339844 156.707031 56.339844 280.914062 C 56.339844 405.125 157.03125 505.816406 281.238281 505.816406 Z M 281.238281 505.816406 " fill-opacity="1" fill-rule="nonzero"/><path stroke-linecap="butt" transform="matrix(5.068775, 0, 0, 5.068775, 56.200049, 54.17253)" fill="none" stroke-linejoin="miter" d="M 70.814834 47.682277 C 72.430115 33.002943 61.839848 19.793237 47.160513 18.177955 C 32.480408 16.562673 19.270702 27.152941 17.65542 41.832276 C 16.040138 56.512381 26.630406 69.722087 41.309741 71.337369 C 55.989846 72.952651 69.199552 62.362383 70.814834 47.682277 Z M 70.814834 47.682277 " stroke="#ffffff" stroke-width="4.69" stroke-opacity="1" stroke-miterlimit="10"/></g><path fill="#ffffff" d="M 345.019531 280.644531 L 238.222656 342.28125 L 238.222656 218.957031 Z M 345.019531 280.644531 " fill-opacity="1" fill-rule="nonzero"/></svg>