<svg xmlns="http://www.w3.org/2000/svg" xmlns:xlink="http://www.w3.org/1999/xlink" width="100" zoomAndPan="magnify" viewBox="0 0 75 74.999997" height="100" preserveAspectRatio="xMidYMid meet" version="1.0"><defs><clipPath id="5f5c0e7777"><path d="M 15 15 L 61 15 L 61 60 L 15 60 Z M 15 15 " clip-rule="nonzero"/></clipPath><clipPath id="69e0440922"><path d="M 60.039062 37.5 C 60.039062 38.234375 60.003906 38.96875 59.933594 39.703125 C 59.859375 40.433594 59.753906 41.160156 59.609375 41.882812 C 59.464844 42.605469 59.285156 43.316406 59.070312 44.023438 C 58.859375 44.726562 58.609375 45.417969 58.328125 46.097656 C 58.046875 46.777344 57.730469 47.441406 57.382812 48.089844 C 57.035156 48.742188 56.660156 49.371094 56.25 49.984375 C 55.839844 50.59375 55.402344 51.183594 54.933594 51.753906 C 54.464844 52.324219 53.972656 52.867188 53.449219 53.386719 C 52.929688 53.90625 52.382812 54.402344 51.816406 54.867188 C 51.246094 55.335938 50.652344 55.773438 50.042969 56.183594 C 49.429688 56.589844 48.796875 56.96875 48.148438 57.316406 C 47.496094 57.664062 46.832031 57.976562 46.152344 58.257812 C 45.46875 58.539062 44.777344 58.789062 44.070312 59 C 43.367188 59.214844 42.652344 59.394531 41.929688 59.535156 C 41.207031 59.679688 40.480469 59.789062 39.746094 59.859375 C 39.011719 59.933594 38.277344 59.96875 37.539062 59.96875 C 36.804688 59.96875 36.070312 59.933594 35.335938 59.859375 C 34.601562 59.789062 33.875 59.679688 33.152344 59.535156 C 32.429688 59.394531 31.714844 59.214844 31.007812 59 C 30.304688 58.789062 29.609375 58.539062 28.929688 58.257812 C 28.25 57.976562 27.585938 57.664062 26.933594 57.316406 C 26.285156 56.96875 25.652344 56.589844 25.039062 56.183594 C 24.429688 55.773438 23.835938 55.335938 23.265625 54.867188 C 22.699219 54.402344 22.152344 53.90625 21.632812 53.386719 C 21.109375 52.867188 20.617188 52.324219 20.148438 51.753906 C 19.679688 51.183594 19.242188 50.59375 18.832031 49.984375 C 18.421875 49.371094 18.046875 48.742188 17.699219 48.089844 C 17.351562 47.441406 17.035156 46.777344 16.753906 46.097656 C 16.472656 45.417969 16.222656 44.726562 16.007812 44.023438 C 15.796875 43.316406 15.617188 42.605469 15.472656 41.882812 C 15.328125 41.160156 15.222656 40.433594 15.148438 39.703125 C 15.078125 38.96875 15.039062 38.234375 15.039062 37.5 C 15.039062 36.765625 15.078125 36.03125 15.148438 35.296875 C 15.222656 34.566406 15.328125 33.839844 15.472656 33.117188 C 15.617188 32.394531 15.796875 31.683594 16.007812 30.976562 C 16.222656 30.273438 16.472656 29.582031 16.753906 28.902344 C 17.035156 28.222656 17.351562 27.558594 17.699219 26.910156 C 18.046875 26.257812 18.421875 25.628906 18.832031 25.015625 C 19.242188 24.40625 19.679688 23.816406 20.148438 23.246094 C 20.617188 22.675781 21.109375 22.132812 21.632812 21.613281 C 22.152344 21.09375 22.699219 20.597656 23.265625 20.132812 C 23.835938 19.664062 24.429688 19.226562 25.039062 18.816406 C 25.652344 18.410156 26.285156 18.03125 26.933594 17.683594 C 27.585938 17.335938 28.25 17.023438 28.929688 16.742188 C 29.609375 16.460938 30.304688 16.210938 31.007812 16 C 31.714844 15.785156 32.429688 15.605469 33.152344 15.464844 C 33.875 15.320312 34.601562 15.210938 35.335938 15.140625 C 36.070312 15.066406 36.804688 15.03125 37.539062 15.03125 C 38.277344 15.03125 39.011719 15.066406 39.746094 15.140625 C 40.480469 15.210938 41.207031 15.320312 41.929688 15.464844 C 42.652344 15.605469 43.367188 15.785156 44.070312 16 C 44.777344 16.210938 45.46875 16.460938 46.152344 16.742188 C 46.832031 17.023438 47.496094 17.335938 48.148438 17.683594 C 48.796875 18.03125 49.429688 18.410156 50.042969 18.816406 C 50.652344 19.226562 51.246094 19.664062 51.816406 20.132812 C 52.382812 20.597656 52.929688 21.09375 53.449219 21.613281 C 53.972656 22.132812 54.464844 22.675781 54.933594 23.246094 C 55.402344 23.816406 55.839844 24.40625 56.25 25.015625 C 56.660156 25.628906 57.035156 26.257812 57.382812 26.910156 C 57.730469 27.558594 58.046875 28.222656 58.328125 28.902344 C 58.609375 29.582031 58.859375 30.273438 59.070312 30.976562 C 59.285156 31.683594 59.464844 32.394531 59.609375 33.117188 C 59.753906 33.839844 59.859375 34.566406 59.933594 35.296875 C 60.003906 36.03125 60.039062 36.765625 60.039062 37.5 Z M 60.039062 37.5 " clip-rule="nonzero"/></clipPath><linearGradient x1="53.892314" gradientTransform="matrix(0.650287, 0, 0, 0.649376, 15.04091, 15.031546)" y1="-6.560865" x2="18.09687" gradientUnits="userSpaceOnUse" y2="76.956316" id="8854b8d3c1"><stop stop-opacity="1" stop-color="rgb(21.598816%, 68.199158%, 88.598633%)" offset="0"/><stop stop-opacity="1" stop-color="rgb(21.598816%, 68.199158%, 88.598633%)" offset="0.125"/><stop stop-opacity="1" stop-color="rgb(21.598816%, 68.199158%, 88.598633%)" offset="0.1875"/><stop stop-opacity="1" stop-color="rgb(21.577454%, 68.179321%, 88.577271%)" offset="0.21875"/><stop stop-opacity="1" stop-color="rgb(21.398926%, 68.006897%, 88.391113%)" offset="0.234375"/><stop stop-opacity="1" stop-color="rgb(21.081543%, 67.703247%, 88.061523%)" offset="0.25"/><stop stop-opacity="1" stop-color="rgb(20.765686%, 67.398071%, 87.730408%)" offset="0.265625"/><stop stop-opacity="1" stop-color="rgb(20.448303%, 67.094421%, 87.400818%)" offset="0.28125"/><stop stop-opacity="1" stop-color="rgb(20.13092%, 66.790771%, 87.071228%)" offset="0.296875"/><stop stop-opacity="1" stop-color="rgb(19.815063%, 66.487122%, 86.741638%)" offset="0.300014"/><stop stop-opacity="1" stop-color="rgb(19.656372%, 66.33606%, 86.576843%)" offset="0.3125"/><stop stop-opacity="1" stop-color="rgb(19.497681%, 66.183472%, 86.412048%)" offset="0.328125"/><stop stop-opacity="1" stop-color="rgb(19.180298%, 65.879822%, 86.082458%)" offset="0.34375"/><stop stop-opacity="1" stop-color="rgb(18.864441%, 65.574646%, 85.752869%)" offset="0.359375"/><stop stop-opacity="1" stop-color="rgb(18.547058%, 65.270996%, 85.423279%)" offset="0.375"/><stop stop-opacity="1" stop-color="rgb(18.229675%, 64.967346%, 85.093689%)" offset="0.390625"/><stop stop-opacity="1" stop-color="rgb(17.913818%, 64.663696%, 84.762573%)" offset="0.40625"/><stop stop-opacity="1" stop-color="rgb(17.596436%, 64.360046%, 84.432983%)" offset="0.421875"/><stop stop-opacity="1" stop-color="rgb(17.280579%, 64.056396%, 84.103394%)" offset="0.4375"/><stop stop-opacity="1" stop-color="rgb(16.963196%, 63.751221%, 83.773804%)" offset="0.453125"/><stop stop-opacity="1" stop-color="rgb(16.645813%, 63.447571%, 83.444214%)" offset="0.46875"/><stop stop-opacity="1" stop-color="rgb(16.329956%, 63.143921%, 83.114624%)" offset="0.484375"/><stop stop-opacity="1" stop-color="rgb(16.012573%, 62.840271%, 82.785034%)" offset="0.5"/><stop stop-opacity="1" stop-color="rgb(15.69519%, 62.536621%, 82.455444%)" offset="0.515625"/><stop stop-opacity="1" stop-color="rgb(15.379333%, 62.232971%, 82.125854%)" offset="0.53125"/><stop stop-opacity="1" stop-color="rgb(15.061951%, 61.927795%, 81.794739%)" offset="0.546875"/><stop stop-opacity="1" stop-color="rgb(14.744568%, 61.624146%, 81.465149%)" offset="0.5625"/><stop stop-opacity="1" stop-color="rgb(14.428711%, 61.320496%, 81.135559%)" offset="0.578125"/><stop stop-opacity="1" stop-color="rgb(14.111328%, 61.016846%, 80.805969%)" offset="0.59375"/><stop stop-opacity="1" stop-color="rgb(13.795471%, 60.713196%, 80.476379%)" offset="0.609375"/><stop stop-opacity="1" stop-color="rgb(13.478088%, 60.409546%, 80.14679%)" offset="0.625"/><stop stop-opacity="1" stop-color="rgb(13.160706%, 60.10437%, 79.8172%)" offset="0.640625"/><stop stop-opacity="1" stop-color="rgb(12.844849%, 59.80072%, 79.48761%)" offset="0.65625"/><stop stop-opacity="1" stop-color="rgb(12.527466%, 59.49707%, 79.15802%)" offset="0.671875"/><stop stop-opacity="1" stop-color="rgb(12.210083%, 59.19342%, 78.826904%)" offset="0.6875"/><stop stop-opacity="1" stop-color="rgb(11.92627%, 58.920288%, 78.530884%)" offset="0.699986"/><stop stop-opacity="1" stop-color="rgb(11.799622%, 58.799744%, 78.399658%)" offset="0.75"/><stop stop-opacity="1" stop-color="rgb(11.799622%, 58.799744%, 78.399658%)" offset="1"/></linearGradient></defs><g clip-path="url(#5f5c0e7777)"><g clip-path="url(#69e0440922)"><path fill="url(#8854b8d3c1)" d="M 15.039062 15.03125 L 15.039062 59.96875 L 60.039062 59.96875 L 60.039062 15.03125 Z M 15.039062 15.03125 " fill-rule="nonzero"/></g></g><path fill="#ffffff" d="M 24.40625 37.304688 L 39.558594 31.070312 C 41.050781 30.421875 46.125 28.34375 46.125 28.34375 C 46.125 28.34375 48.464844 27.433594 48.269531 29.640625 C 48.207031 30.550781 47.683594 33.734375 47.164062 37.175781 L 45.539062 47.371094 C 45.539062 47.371094 45.410156 48.863281 44.304688 49.125 C 43.199219 49.382812 41.378906 48.214844 41.050781 47.953125 C 40.792969 47.761719 36.175781 44.835938 34.484375 43.410156 C 34.027344 43.019531 33.507812 42.242188 34.550781 41.332031 C 36.890625 39.1875 39.6875 36.527344 41.378906 34.835938 C 42.15625 34.058594 42.9375 32.238281 39.6875 34.449219 L 30.519531 40.617188 C 30.519531 40.617188 29.476562 41.265625 27.527344 40.683594 C 25.574219 40.097656 23.300781 39.316406 23.300781 39.316406 C 23.300781 39.316406 21.738281 38.34375 24.40625 37.304688 Z M 24.40625 37.304688 " fill-opacity="1" fill-rule="nonzero"/></svg>